<svg xmlns="http://www.w3.org/2000/svg" xmlns:xlink="http://www.w3.org/1999/xlink" version="1.1" width="171" height="36" viewBox="0 0 834 165" xml:space="preserve">
<desc>Created with Fabric.js 3.5.0</desc>
<defs>
</defs>
<rect x="0" y="0" width="100%" height="100%" fill="rgba(255,255,255,0)"/>
<g transform="matrix(5.3163 0 0 5.3163 90.7163 82.4026)" id="292161">
<linearGradient id="SVGID_2" gradientUnits="userSpaceOnUse" gradientTransform="matrix(1 0 0 1 0 0)" x1="15" y1="3" x2="15" y2="33">
<stop offset="0%" style="stop-color:rgb(135,126,255);stop-opacity: 1"/>
<stop offset="46.1458%" style="stop-color:rgb(104,93,255);stop-opacity: 1"/>
<stop offset="100%" style="stop-color:rgb(49,33,255);stop-opacity: 1"/>
</linearGradient>
<path style="stroke: none; stroke-width: 1; stroke-dasharray: none; stroke-linecap: butt; stroke-dashoffset: 0; stroke-linejoin: miter; stroke-miterlimit: 4; is-custom-font: none; font-file-url: none; fill: url(#SVGID_2); fill-rule: evenodd; opacity: 1;" transform=" translate(-15, -18)" d="M 27.8333 18 C 27.8333 25.0877 22.0877 30.8333 15 30.8333 C 7.91234 30.8333 2.16666 25.0877 2.16666 18 C 2.16666 10.9123 7.91234 5.16666 15 5.16666 C 22.0877 5.16666 27.8333 10.9123 27.8333 18 Z M 30 18 C 30 26.2843 23.2843 33 15 33 C 6.71573 33 0 26.2843 0 18 C 0 9.71573 6.71573 3 15 3 C 23.2843 3 30 9.71573 30 18 Z M 23.2759 11.2759 C 23.2759 12.1329 22.5812 12.8276 21.7242 12.8276 C 20.8672 12.8276 20.1725 12.1329 20.1725 11.2759 C 20.1725 10.4189 20.8672 9.72418 21.7242 9.72418 C 22.5812 9.72418 23.2759 10.4189 23.2759 11.2759 Z M 10.4879 19.209 C 11.1556 21.7009 13.717 23.1797 16.2089 22.512 C 18.7008 21.8443 20.1796 19.2829 19.5119 16.791 C 18.8442 14.2991 16.2828 12.8203 13.7909 13.488 C 11.299 14.1557 9.82015 16.7171 10.4879 19.209 Z M 8.39503 19.7698 C 9.37244 23.4175 13.1219 25.5823 16.7696 24.6049 C 20.4174 23.6274 22.5821 19.878 21.6047 16.2302 C 20.6273 12.5825 16.8779 10.4177 13.2301 11.3952 C 9.58236 12.3726 7.41762 16.122 8.39503 19.7698 Z" stroke-linecap="round"/>
</g>
<g transform="matrix(1 0 0 1 417.1667 82.4026)" style="" id="121973">
		
<path xml:space="preserve" font-family="Alef" font-size="108" font-style="normal" font-weight="bold" style="stroke: none; stroke-width: 1; stroke-dasharray: none; stroke-linecap: butt; stroke-dashoffset: 0; stroke-linejoin: miter; stroke-miterlimit: 4; is-custom-font: none; font-file-url: none; fill: rgb(255,255,255); fill-rule: nonzero; opacity: 1; white-space: pre;" d="M-200.89 30.08L-196.99 20.80Q-192.61 22.48-187.63 23.62Q-182.65 24.75-176.79 24.75L-176.79 24.75Q-173.00 24.75-169.83 24.07Q-166.67 23.38-164.37 21.90Q-162.08 20.43-160.79 18.13Q-159.50 15.84-159.50 12.62L-159.50 12.62Q-159.50 9.14-160.89 7.09Q-162.29 5.03-164.82 3.71Q-167.35 2.39-170.94 1.50Q-174.52 0.60-178.90-0.51L-178.90-0.51Q-183.81-1.77-187.84-3.41Q-191.87-5.04-194.72-7.63Q-197.57-10.21-199.15-14.01Q-200.73-17.81-200.73-23.40L-200.73-23.40Q-200.73-27.14-199.49-30.09Q-198.25-33.05-196.15-35.23Q-194.04-37.42-191.27-38.95Q-188.50-40.48-185.47-41.43Q-182.43-42.38-179.27-42.80Q-176.11-43.22-173.26-43.22L-173.26-43.22Q-171.25-43.22-168.43-43.01Q-165.61-42.80-162.42-42.25Q-159.23-41.69-155.83-40.80Q-152.43-39.90-149.26-38.53L-149.26-38.53L-153.01-29.35Q-157.23-30.88-161.79-31.83Q-166.35-32.78-171.36-32.78L-171.36-32.78Q-174.52-32.78-177.16-32.28Q-179.80-31.78-181.72-30.67Q-183.65-29.57-184.70-27.77Q-185.76-25.98-185.76-23.45L-185.76-23.45Q-185.76-20.18-184.46-18.33Q-183.17-16.49-180.75-15.33Q-178.32-14.17-174.81-13.35Q-171.31-12.53-166.88-11.37L-166.88-11.37Q-162.03-10.11-157.94-8.39Q-153.85-6.68-150.87-3.96Q-147.89-1.25-146.21 2.76Q-144.52 6.77-144.52 12.62L-144.52 12.62Q-144.52 17.79-146.15 21.48Q-147.79 25.17-150.42 27.68Q-153.06 30.18-156.44 31.66Q-159.81 33.14-163.29 33.93Q-166.77 34.72-170.04 34.96Q-173.31 35.19-175.79 35.19L-175.79 35.19Q-178.22 35.14-181.25 34.88Q-184.28 34.61-187.60 34.03Q-190.92 33.45-194.33 32.48Q-197.73 31.50-200.89 30.08L-200.89 30.08ZM-116.31-11.53L-115.62-11.53Q-113.88-14.17-112.01-16.14Q-110.14-18.12-108.00-19.47Q-105.86-20.81-103.31-21.47Q-100.75-22.13-97.64-22.13L-97.64-22.13Q-94.16-22.13-91.47-21.36Q-88.78-20.60-86.83-19.15Q-84.88-17.70-83.53-15.56Q-82.19-13.43-81.40-10.74L-81.40-10.74Q-80.66-8.05-80.31-4.91Q-79.97-1.77-79.97 1.86L-79.97 1.86L-79.97 33.93L-94.42 33.93L-94.42-2.30Q-94.42-6.84-96.50-9.21Q-98.59-11.58-102.17-11.58L-102.17-11.58Q-104.18-11.58-106.10-10.63Q-108.03-9.68-109.82-8.13Q-111.61-6.57-113.14-4.62Q-114.67-2.67-115.88-0.67L-115.88-0.67L-115.88 33.93L-130.33 33.93L-130.33 0.12Q-130.33-4.15-130.41-7.02Q-130.49-9.90-130.70-12.11L-130.70-12.11Q-130.81-13.22-130.91-14.06Q-131.02-14.90-131.15-15.70Q-131.28-16.49-131.47-17.30Q-131.65-18.12-131.92-19.18L-131.92-19.18Q-128.49-20.07-125.09-20.78Q-121.68-21.50-118.20-22.13L-118.20-22.13Q-117.83-21.02-117.52-19.94Q-117.20-18.86-116.99-17.62Q-116.78-16.38-116.62-14.90Q-116.46-13.43-116.31-11.53L-116.31-11.53ZM-60.41-8.21L-63.62-18.23Q-61.67-19.02-59.17-19.70Q-56.66-20.39-53.84-20.94Q-51.02-21.50-47.99-21.81Q-44.96-22.13-41.84-22.13L-41.84-22.13Q-37.47-22.13-33.64-21.44Q-29.82-20.76-27.29-19.18L-27.29-19.18Q-24.76-17.59-23.33-14.88Q-21.91-12.16-21.91-8.05L-21.91-8.05L-21.91 13.36Q-21.91 17.05-21.86 19.93Q-21.81 22.80-21.65 25.54L-21.65 25.54Q-21.54 26.54-21.44 27.36Q-21.33 28.18-21.20 28.94Q-21.07 29.71-20.88 30.55Q-20.70 31.40-20.43 32.40L-20.43 32.40Q-23.70 33.14-26.95 33.82Q-30.19 34.51-33.51 35.14L-33.51 35.14Q-34.09 33.66-34.44 32.11Q-34.78 30.55-35.04 28.55L-35.04 28.55L-35.83 28.55Q-37.68 30.45-39.52 31.71Q-41.37 32.98-43.37 33.77Q-45.38 34.56-47.54 34.88Q-49.70 35.19-52.08 35.19L-52.08 35.19Q-55.71 35.19-58.83 34.32Q-61.94 33.45-64.23 31.66Q-66.52 29.87-67.82 27.10Q-69.11 24.33-69.11 20.59L-69.11 20.59Q-69.11 17.42-68.45 14.94Q-67.79 12.46-66.58 10.51Q-65.36 8.56-63.68 7.09Q-61.99 5.61-59.93 4.50L-59.93 4.50Q-55.82 2.29-50.76 1.47Q-45.69 0.65-40.42 0.65L-40.42 0.65L-35.89 0.65L-35.89-6.20Q-35.89-8.15-36.49-9.29Q-37.10-10.42-38.13-11.00Q-39.16-11.58-40.53-11.77Q-41.90-11.95-43.48-11.95L-43.48-11.95Q-47.75-11.95-52.10-10.87Q-56.45-9.79-60.41-8.21L-60.41-8.21ZM-35.89 19.21L-35.89 8.40L-36.94 8.40Q-40.68 8.46-44.09 8.96Q-47.49 9.46-50.07 10.67Q-52.66 11.88-54.21 13.86Q-55.77 15.84-55.77 18.85L-55.77 18.85Q-55.77 22.17-53.84 23.96Q-51.92 25.75-48.44 25.75L-48.44 25.75Q-46.80 25.75-45.06 25.31Q-43.32 24.86-41.63 24.04Q-39.95 23.22-38.47 22.01Q-36.99 20.80-35.89 19.21L-35.89 19.21ZM8.83-12.11L9.41-12.11Q15.53-22.13 26.71-22.13L26.71-22.13Q32.25-22.13 36.04-19.97Q39.84-17.81 42.19-14.14Q44.53-10.48 45.56-5.65Q46.59-0.82 46.59 4.55L46.59 4.55Q46.59 12.15 44.56 17.87Q42.53 23.59 38.84 27.44Q35.15 31.29 30.01 33.24Q24.86 35.19 18.64 35.19L18.64 35.19Q16.37 35.19 14.24 34.98Q12.10 34.77 9.94 34.45L9.94 34.45L9.94 55.07L-4.46 55.07L-4.46-2.99Q-4.46-5.47-4.48-7.63Q-4.51-9.79-4.67-11.74Q-4.83-13.69-5.12-15.56Q-5.41-17.44-5.93-19.33L-5.93-19.33Q-2.56-20.28 0.45-20.92Q3.45-21.55 6.93-22.13L6.93-22.13Q7.30-21.02 7.62-20.02Q7.94-19.02 8.17-17.86Q8.41-16.70 8.57-15.33Q8.73-13.96 8.83-12.11L8.83-12.11ZM9.78-1.46L9.78 23.59Q14.00 24.65 17.64 24.65L17.64 24.65Q20.75 24.65 23.41 23.80Q26.08 22.96 28.00 21.06Q29.93 19.16 31.03 16.16Q32.14 13.15 32.14 8.83L32.14 8.83Q32.14 4.34 31.77 0.60Q31.40-3.15 30.30-5.86Q29.19-8.58 27.13-10.08Q25.08-11.58 21.70-11.58L21.70-11.58Q19.22-11.58 17.35-10.58Q15.48-9.58 13.95-7.79L13.95-7.79Q12.79-6.52 11.79-4.91Q10.78-3.30 9.78-1.46L9.78-1.46ZM68.11-47.65L68.11-47.65Q69.90-47.65 71.51-46.97Q73.12-46.28 74.30-45.10Q75.49-43.91 76.17-42.30Q76.86-40.69 76.86-38.90L76.86-38.90Q76.86-37.05 76.17-35.47Q75.49-33.89 74.30-32.68Q73.12-31.46 71.51-30.78Q69.90-30.09 68.11-30.09L68.11-30.09Q66.26-30.09 64.68-30.78Q63.10-31.46 61.88-32.68Q60.67-33.89 59.99-35.47Q59.30-37.05 59.30-38.90L59.30-38.90Q59.30-40.69 59.99-42.30Q60.67-43.91 61.88-45.10Q63.10-46.28 64.68-46.97Q66.26-47.65 68.11-47.65ZM60.83-20.92L75.28-20.92L75.28 33.93L60.83 33.93L60.83-20.92ZM99.48-20.92L99.48-22.92Q99.48-28.46 100.41-32.47Q101.33-36.47 103.52-39.03Q105.71-41.59 109.37-42.83Q113.04-44.07 118.52-44.07L118.52-44.07Q122.79-44.07 127.80-43.38Q132.81-42.70 138.45-41.54L138.45-41.54L136.19-31.52Q131.44-32.41 127.99-32.97Q124.53-33.52 121.90-33.52L121.90-33.52Q119.31-33.52 117.73-33.07Q116.15-32.62 115.30-31.41Q114.46-30.20 114.20-28.04Q113.93-25.87 113.93-22.45L113.93-22.45L113.93-20.92L131.55-20.92L131.55-10.37L113.93-10.37L113.93 23.38L131.55 23.38L131.55 33.93L90.31 33.93L90.31 23.38L99.48 23.38L99.48-10.37L90.31-10.37L90.31-20.92L99.48-20.92ZM182.59-20.92L197.15-20.92L197.15 33.51Q197.15 39.68 195.17 43.97Q193.19 48.27 189.58 50.96Q185.97 53.65 180.93 54.86Q175.90 56.08 169.83 56.08L169.83 56.08Q165.14 56.08 160.31 55.26Q155.49 54.44 151.37 52.81L151.37 52.81Q152.48 50.17 153.64 47.64Q154.80 45.11 156.01 42.58L156.01 42.58Q159.81 43.79 163.71 44.66Q167.62 45.53 171.25 45.53L171.25 45.53Q172.31 45.53 173.55 45.45Q174.79 45.37 176.05 45.05Q177.32 44.74 178.53 44.08Q179.75 43.42 180.67 42.29Q181.59 41.15 182.17 39.44Q182.75 37.72 182.80 35.30L182.80 35.30L182.80 24.59L182.33 24.59Q180.59 27.23 178.72 29.21Q176.84 31.18 174.68 32.53Q172.52 33.87 169.94 34.53Q167.35 35.19 164.19 35.19L164.19 35.19Q159.02 35.19 155.65 33.56Q152.27 31.92 150.21 28.86L150.21 28.86Q148.21 25.70 147.37 21.27Q146.52 16.84 146.52 11.20L146.52 11.20L146.52-20.92L160.97-20.92L160.97 15.36Q160.97 19.90 163.08 22.27Q165.19 24.65 168.88 24.65L168.88 24.65Q170.89 24.65 172.81 23.70Q174.74 22.75 176.53 21.22Q178.32 19.69 179.85 17.71Q181.38 15.73 182.59 13.73L182.59 13.73L182.59-20.92Z"/></g>
</svg>